<mxfile host="Electron" agent="Mozilla/5.0 (Windows NT 10.0; Win64; x64) AppleWebKit/537.36 (KHTML, like Gecko) draw.io/24.7.17 Chrome/128.0.6613.36 Electron/32.0.1 Safari/537.36" version="24.7.17">
  <diagram name="Page-1" id="QqzNydMNZ9vQcSVg_eaM">
    <mxGraphModel dx="1886" dy="606" grid="1" gridSize="10" guides="1" tooltips="1" connect="1" arrows="1" fold="1" page="1" pageScale="1" pageWidth="850" pageHeight="1100" math="0" shadow="0">
      <root>
        <mxCell id="0" />
        <mxCell id="1" parent="0" />
        <mxCell id="I2ES7baPowGfzo4NWeZB-14" value="&lt;font color=&quot;#ff3333&quot; style=&quot;font-size: 18px;&quot;&gt;User&lt;/font&gt;" style="swimlane;whiteSpace=wrap;html=1;startSize=40;" vertex="1" parent="1">
          <mxGeometry x="-80" y="40" width="340" height="1010" as="geometry" />
        </mxCell>
        <mxCell id="I2ES7baPowGfzo4NWeZB-17" value="&lt;font style=&quot;font-size: 14px;&quot;&gt;Bắt đầu&lt;/font&gt;" style="ellipse;whiteSpace=wrap;html=1;fillColor=#f8cecc;strokeColor=#b85450;" vertex="1" parent="I2ES7baPowGfzo4NWeZB-14">
          <mxGeometry x="60" y="50" width="190" height="70" as="geometry" />
        </mxCell>
        <mxCell id="I2ES7baPowGfzo4NWeZB-18" value="&lt;font style=&quot;font-size: 14px;&quot;&gt;Nhập thông tin đăng nhập/ đăng ký&lt;/font&gt;" style="rounded=0;whiteSpace=wrap;html=1;fillColor=#fff2cc;strokeColor=#d6b656;" vertex="1" parent="I2ES7baPowGfzo4NWeZB-14">
          <mxGeometry x="60" y="150" width="190" height="90" as="geometry" />
        </mxCell>
        <mxCell id="I2ES7baPowGfzo4NWeZB-19" value="&lt;font style=&quot;font-size: 14px;&quot;&gt;Nhập lại ( nếu sai)&lt;/font&gt;" style="rounded=0;whiteSpace=wrap;html=1;fillColor=#fff2cc;strokeColor=#d6b656;" vertex="1" parent="I2ES7baPowGfzo4NWeZB-14">
          <mxGeometry x="80" y="340" width="170" height="60" as="geometry" />
        </mxCell>
        <mxCell id="I2ES7baPowGfzo4NWeZB-20" value="&lt;font style=&quot;font-size: 14px;&quot;&gt;Nhập tin nhắn&lt;/font&gt;" style="rounded=0;whiteSpace=wrap;html=1;fillColor=#fff2cc;strokeColor=#d6b656;" vertex="1" parent="I2ES7baPowGfzo4NWeZB-14">
          <mxGeometry x="77.5" y="520" width="170" height="50" as="geometry" />
        </mxCell>
        <mxCell id="I2ES7baPowGfzo4NWeZB-43" style="edgeStyle=orthogonalEdgeStyle;rounded=0;orthogonalLoop=1;jettySize=auto;html=1;exitX=0.5;exitY=0;exitDx=0;exitDy=0;entryX=0.5;entryY=1;entryDx=0;entryDy=0;" edge="1" parent="I2ES7baPowGfzo4NWeZB-14" source="I2ES7baPowGfzo4NWeZB-21" target="I2ES7baPowGfzo4NWeZB-20">
          <mxGeometry relative="1" as="geometry" />
        </mxCell>
        <mxCell id="I2ES7baPowGfzo4NWeZB-44" value="" style="edgeStyle=orthogonalEdgeStyle;rounded=0;orthogonalLoop=1;jettySize=auto;html=1;" edge="1" parent="I2ES7baPowGfzo4NWeZB-14" source="I2ES7baPowGfzo4NWeZB-21" target="I2ES7baPowGfzo4NWeZB-22">
          <mxGeometry relative="1" as="geometry" />
        </mxCell>
        <mxCell id="I2ES7baPowGfzo4NWeZB-21" value="&lt;span style=&quot;font-size: 14px;&quot;&gt;Tiếp tục chat ?&lt;/span&gt;" style="rounded=0;whiteSpace=wrap;html=1;fillColor=#dae8fc;strokeColor=#6c8ebf;" vertex="1" parent="I2ES7baPowGfzo4NWeZB-14">
          <mxGeometry x="77.5" y="650" width="170" height="60" as="geometry" />
        </mxCell>
        <mxCell id="I2ES7baPowGfzo4NWeZB-45" value="" style="edgeStyle=orthogonalEdgeStyle;rounded=0;orthogonalLoop=1;jettySize=auto;html=1;" edge="1" parent="I2ES7baPowGfzo4NWeZB-14" source="I2ES7baPowGfzo4NWeZB-22" target="I2ES7baPowGfzo4NWeZB-23">
          <mxGeometry relative="1" as="geometry" />
        </mxCell>
        <mxCell id="I2ES7baPowGfzo4NWeZB-22" value="&lt;font style=&quot;font-size: 14px;&quot;&gt;Đăng xuất&lt;/font&gt;" style="rounded=0;whiteSpace=wrap;html=1;fillColor=#fff2cc;strokeColor=#d6b656;" vertex="1" parent="I2ES7baPowGfzo4NWeZB-14">
          <mxGeometry x="77.5" y="790" width="170" height="60" as="geometry" />
        </mxCell>
        <mxCell id="I2ES7baPowGfzo4NWeZB-23" value="&lt;font style=&quot;font-size: 14px;&quot;&gt;Kết thúc&lt;/font&gt;" style="ellipse;whiteSpace=wrap;html=1;fillColor=#f8cecc;strokeColor=#b85450;" vertex="1" parent="I2ES7baPowGfzo4NWeZB-14">
          <mxGeometry x="75" y="910" width="175" height="80" as="geometry" />
        </mxCell>
        <mxCell id="I2ES7baPowGfzo4NWeZB-15" value="&lt;font color=&quot;#ff3333&quot; style=&quot;font-size: 18px;&quot;&gt;Client App&lt;/font&gt;" style="swimlane;whiteSpace=wrap;html=1;startSize=40;" vertex="1" parent="1">
          <mxGeometry x="260" y="40" width="300" height="1010" as="geometry" />
        </mxCell>
        <mxCell id="I2ES7baPowGfzo4NWeZB-27" value="&lt;font style=&quot;font-size: 14px;&quot;&gt;Gửi thông tin đăng nhập đến sever&lt;/font&gt;" style="rounded=0;whiteSpace=wrap;html=1;fillColor=#fff2cc;strokeColor=#d6b656;" vertex="1" parent="I2ES7baPowGfzo4NWeZB-15">
          <mxGeometry x="60" y="150" width="190" height="70" as="geometry" />
        </mxCell>
        <mxCell id="I2ES7baPowGfzo4NWeZB-26" value="&lt;font style=&quot;font-size: 14px;&quot;&gt;Hiện thị giao diện chat&lt;/font&gt;" style="rounded=0;whiteSpace=wrap;html=1;fillColor=#fff2cc;strokeColor=#d6b656;" vertex="1" parent="I2ES7baPowGfzo4NWeZB-15">
          <mxGeometry x="60" y="400" width="190" height="70" as="geometry" />
        </mxCell>
        <mxCell id="I2ES7baPowGfzo4NWeZB-25" value="&lt;font style=&quot;font-size: 14px;&quot;&gt;Gửi tin nhắn đến sever&lt;/font&gt;" style="rounded=0;whiteSpace=wrap;html=1;fillColor=#fff2cc;strokeColor=#d6b656;" vertex="1" parent="I2ES7baPowGfzo4NWeZB-15">
          <mxGeometry x="55" y="510" width="190" height="70" as="geometry" />
        </mxCell>
        <mxCell id="I2ES7baPowGfzo4NWeZB-24" value="&lt;font style=&quot;font-size: 14px;&quot;&gt;Nhận và hiển thị tin nhắn&lt;/font&gt;" style="rounded=0;whiteSpace=wrap;html=1;fillColor=#fff2cc;strokeColor=#d6b656;" vertex="1" parent="I2ES7baPowGfzo4NWeZB-15">
          <mxGeometry x="70" y="680" width="190" height="80" as="geometry" />
        </mxCell>
        <mxCell id="I2ES7baPowGfzo4NWeZB-16" value="&lt;font color=&quot;#ff3333&quot; style=&quot;font-size: 18px;&quot;&gt;Sever&lt;/font&gt;" style="swimlane;whiteSpace=wrap;html=1;startSize=40;" vertex="1" parent="1">
          <mxGeometry x="560" y="40" width="280" height="1010" as="geometry" />
        </mxCell>
        <mxCell id="I2ES7baPowGfzo4NWeZB-29" value="&lt;font style=&quot;font-size: 14px;&quot;&gt;Kiểm tra thông tin hợp lệ&lt;/font&gt;" style="rounded=0;whiteSpace=wrap;html=1;fillColor=#fff2cc;strokeColor=#d6b656;" vertex="1" parent="I2ES7baPowGfzo4NWeZB-16">
          <mxGeometry x="50" y="140" width="180" height="90" as="geometry" />
        </mxCell>
        <mxCell id="I2ES7baPowGfzo4NWeZB-30" value="&lt;font style=&quot;font-size: 14px;&quot;&gt;Phân phối tin nhắn&lt;/font&gt;" style="rounded=0;whiteSpace=wrap;html=1;fillColor=#fff2cc;strokeColor=#d6b656;" vertex="1" parent="I2ES7baPowGfzo4NWeZB-16">
          <mxGeometry x="50" y="505" width="180" height="80" as="geometry" />
        </mxCell>
        <mxCell id="I2ES7baPowGfzo4NWeZB-35" style="edgeStyle=orthogonalEdgeStyle;rounded=0;orthogonalLoop=1;jettySize=auto;html=1;exitX=1;exitY=0.5;exitDx=0;exitDy=0;entryX=-0.011;entryY=0.649;entryDx=0;entryDy=0;entryPerimeter=0;" edge="1" parent="1" source="I2ES7baPowGfzo4NWeZB-18" target="I2ES7baPowGfzo4NWeZB-27">
          <mxGeometry relative="1" as="geometry" />
        </mxCell>
        <mxCell id="I2ES7baPowGfzo4NWeZB-36" style="edgeStyle=orthogonalEdgeStyle;rounded=0;orthogonalLoop=1;jettySize=auto;html=1;exitX=1;exitY=0.5;exitDx=0;exitDy=0;entryX=0;entryY=0.5;entryDx=0;entryDy=0;" edge="1" parent="1" source="I2ES7baPowGfzo4NWeZB-27" target="I2ES7baPowGfzo4NWeZB-29">
          <mxGeometry relative="1" as="geometry" />
        </mxCell>
        <mxCell id="I2ES7baPowGfzo4NWeZB-37" style="edgeStyle=orthogonalEdgeStyle;rounded=0;orthogonalLoop=1;jettySize=auto;html=1;exitX=0.5;exitY=1;exitDx=0;exitDy=0;strokeColor=#FF0080;" edge="1" parent="1" source="I2ES7baPowGfzo4NWeZB-29" target="I2ES7baPowGfzo4NWeZB-26">
          <mxGeometry relative="1" as="geometry" />
        </mxCell>
        <mxCell id="I2ES7baPowGfzo4NWeZB-39" style="edgeStyle=orthogonalEdgeStyle;rounded=0;orthogonalLoop=1;jettySize=auto;html=1;exitX=0;exitY=1;exitDx=0;exitDy=0;entryX=0.5;entryY=0;entryDx=0;entryDy=0;strokeColor=#FF0080;" edge="1" parent="1" source="I2ES7baPowGfzo4NWeZB-29" target="I2ES7baPowGfzo4NWeZB-19">
          <mxGeometry relative="1" as="geometry" />
        </mxCell>
        <mxCell id="I2ES7baPowGfzo4NWeZB-40" style="edgeStyle=orthogonalEdgeStyle;rounded=0;orthogonalLoop=1;jettySize=auto;html=1;exitX=1;exitY=0.5;exitDx=0;exitDy=0;" edge="1" parent="1" source="I2ES7baPowGfzo4NWeZB-20" target="I2ES7baPowGfzo4NWeZB-25">
          <mxGeometry relative="1" as="geometry" />
        </mxCell>
        <mxCell id="I2ES7baPowGfzo4NWeZB-41" style="edgeStyle=orthogonalEdgeStyle;rounded=0;orthogonalLoop=1;jettySize=auto;html=1;exitX=1;exitY=0.5;exitDx=0;exitDy=0;" edge="1" parent="1" source="I2ES7baPowGfzo4NWeZB-25" target="I2ES7baPowGfzo4NWeZB-30">
          <mxGeometry relative="1" as="geometry" />
        </mxCell>
        <mxCell id="I2ES7baPowGfzo4NWeZB-42" style="edgeStyle=orthogonalEdgeStyle;rounded=0;orthogonalLoop=1;jettySize=auto;html=1;exitX=0.5;exitY=1;exitDx=0;exitDy=0;strokeColor=#0000FF;" edge="1" parent="1" source="I2ES7baPowGfzo4NWeZB-30" target="I2ES7baPowGfzo4NWeZB-24">
          <mxGeometry relative="1" as="geometry" />
        </mxCell>
      </root>
    </mxGraphModel>
  </diagram>
</mxfile>
